<mxfile host="app.diagrams.net" agent="Mozilla/5.0 (Windows NT 10.0; Win64; x64) AppleWebKit/537.36 (KHTML, like Gecko) Chrome/126.0.0.0 YaBrowser/24.7.0.0 Safari/537.36" version="24.8.0">
  <diagram name="Страница — 1" id="s_Uss-d8eubKJhKozhHT">
    <mxGraphModel dx="1050" dy="1150" grid="1" gridSize="10" guides="1" tooltips="1" connect="1" arrows="1" fold="1" page="1" pageScale="1" pageWidth="827" pageHeight="583" math="0" shadow="0">
      <root>
        <mxCell id="0" />
        <mxCell id="1" parent="0" />
        <mxCell id="daJ791IwRfYhMkmhPRZ3-1" value="" style="rounded=0;whiteSpace=wrap;html=1;movable=1;resizable=1;rotatable=1;deletable=1;editable=1;locked=0;connectable=1;" parent="1" vertex="1">
          <mxGeometry x="350" y="120" width="329" height="990" as="geometry" />
        </mxCell>
        <mxCell id="6oFPLpPIxrQ2h45yOhz2-3" value="" style="rounded=0;whiteSpace=wrap;html=1;movable=1;resizable=1;rotatable=1;deletable=1;editable=1;locked=0;connectable=1;" parent="1" vertex="1">
          <mxGeometry x="110" y="120" width="240" height="990" as="geometry" />
        </mxCell>
        <mxCell id="6oFPLpPIxrQ2h45yOhz2-4" value="&lt;h3&gt;&lt;b&gt;&lt;font style=&quot;font-size: 15px;&quot;&gt;Заголовок&lt;/font&gt;&lt;/b&gt;&lt;/h3&gt;" style="text;html=1;align=center;verticalAlign=middle;whiteSpace=wrap;rounded=0;" parent="1" vertex="1">
          <mxGeometry x="200" y="140" width="60" height="30" as="geometry" />
        </mxCell>
        <mxCell id="6oFPLpPIxrQ2h45yOhz2-5" value="&lt;p class=&quot;MsoNormal&quot;&gt;&lt;font style=&quot;font-size: 14px;&quot;&gt;Отправка стикера в чате приложения&lt;/font&gt;&lt;/p&gt;" style="text;html=1;align=center;verticalAlign=middle;whiteSpace=wrap;rounded=0;" parent="1" vertex="1">
          <mxGeometry x="350" y="120" width="330" height="60" as="geometry" />
        </mxCell>
        <mxCell id="6oFPLpPIxrQ2h45yOhz2-7" value="" style="endArrow=none;html=1;rounded=0;entryX=1;entryY=0;entryDx=0;entryDy=0;" parent="1" edge="1">
          <mxGeometry width="50" height="50" relative="1" as="geometry">
            <mxPoint x="109" y="1020" as="sourcePoint" />
            <mxPoint x="679" y="1020" as="targetPoint" />
          </mxGeometry>
        </mxCell>
        <mxCell id="6oFPLpPIxrQ2h45yOhz2-8" value="" style="endArrow=none;html=1;rounded=0;entryX=1;entryY=0;entryDx=0;entryDy=0;" parent="1" edge="1">
          <mxGeometry width="50" height="50" relative="1" as="geometry">
            <mxPoint x="110" y="180" as="sourcePoint" />
            <mxPoint x="680" y="180" as="targetPoint" />
          </mxGeometry>
        </mxCell>
        <mxCell id="6oFPLpPIxrQ2h45yOhz2-9" value="&lt;h3&gt;&lt;b&gt;&lt;font style=&quot;font-size: 15px;&quot;&gt;Акторы&lt;/font&gt;&lt;/b&gt;&lt;/h3&gt;" style="text;html=1;align=center;verticalAlign=middle;whiteSpace=wrap;rounded=0;" parent="1" vertex="1">
          <mxGeometry x="200" y="195" width="60" height="30" as="geometry" />
        </mxCell>
        <mxCell id="6oFPLpPIxrQ2h45yOhz2-10" value="&lt;font style=&quot;font-size: 14px;&quot;&gt;Пользователь&lt;/font&gt;" style="text;html=1;align=center;verticalAlign=middle;whiteSpace=wrap;rounded=0;" parent="1" vertex="1">
          <mxGeometry x="350" y="180" width="330" height="60" as="geometry" />
        </mxCell>
        <mxCell id="6oFPLpPIxrQ2h45yOhz2-11" value="" style="endArrow=none;html=1;rounded=0;entryX=1;entryY=0;entryDx=0;entryDy=0;" parent="1" edge="1">
          <mxGeometry width="50" height="50" relative="1" as="geometry">
            <mxPoint x="110" y="240" as="sourcePoint" />
            <mxPoint x="680" y="240" as="targetPoint" />
          </mxGeometry>
        </mxCell>
        <mxCell id="6oFPLpPIxrQ2h45yOhz2-12" value="&lt;h3&gt;&lt;font style=&quot;font-size: 15px;&quot;&gt;Предусловие&lt;/font&gt;&lt;/h3&gt;" style="text;html=1;align=center;verticalAlign=middle;whiteSpace=wrap;rounded=0;" parent="1" vertex="1">
          <mxGeometry x="200" y="260" width="60" height="30" as="geometry" />
        </mxCell>
        <mxCell id="6oFPLpPIxrQ2h45yOhz2-13" value="&lt;font style=&quot;font-size: 14px;&quot;&gt;Пользователь зарегистрирован и авторизирован в приложении, а также находится во вкладке &quot;Сообщения&quot;&lt;/font&gt;" style="text;html=1;align=center;verticalAlign=middle;whiteSpace=wrap;rounded=0;" parent="1" vertex="1">
          <mxGeometry x="350" y="240" width="330" height="70" as="geometry" />
        </mxCell>
        <mxCell id="6oFPLpPIxrQ2h45yOhz2-15" value="&lt;h3&gt;&lt;font style=&quot;font-size: 15px;&quot;&gt;Ограничения&lt;/font&gt;&lt;/h3&gt;" style="text;html=1;align=center;verticalAlign=middle;whiteSpace=wrap;rounded=0;" parent="1" vertex="1">
          <mxGeometry x="200" y="330" width="60" height="30" as="geometry" />
        </mxCell>
        <mxCell id="6oFPLpPIxrQ2h45yOhz2-17" value="" style="endArrow=none;html=1;rounded=0;entryX=1;entryY=0;entryDx=0;entryDy=0;" parent="1" edge="1">
          <mxGeometry width="50" height="50" relative="1" as="geometry">
            <mxPoint x="110" y="380" as="sourcePoint" />
            <mxPoint x="680" y="380" as="targetPoint" />
          </mxGeometry>
        </mxCell>
        <mxCell id="cwy-5VMXnne6-yURMX6s-1" value="" style="endArrow=none;html=1;rounded=0;entryX=1;entryY=0;entryDx=0;entryDy=0;" parent="1" edge="1">
          <mxGeometry width="50" height="50" relative="1" as="geometry">
            <mxPoint x="110" y="310" as="sourcePoint" />
            <mxPoint x="680" y="310" as="targetPoint" />
          </mxGeometry>
        </mxCell>
        <mxCell id="cwy-5VMXnne6-yURMX6s-2" value="&lt;span style=&quot;font-size: 14px;&quot;&gt;Пользователь не находится в &quot;черном списке&quot; у получателя&lt;/span&gt;" style="text;html=1;align=center;verticalAlign=middle;whiteSpace=wrap;rounded=0;" parent="1" vertex="1">
          <mxGeometry x="350" y="310" width="330" height="70" as="geometry" />
        </mxCell>
        <mxCell id="cwy-5VMXnne6-yURMX6s-3" value="&lt;h3&gt;&lt;font style=&quot;font-size: 15px;&quot;&gt;Триггер&lt;/font&gt;&lt;/h3&gt;" style="text;html=1;align=center;verticalAlign=middle;whiteSpace=wrap;rounded=0;" parent="1" vertex="1">
          <mxGeometry x="200" y="400" width="60" height="30" as="geometry" />
        </mxCell>
        <mxCell id="cwy-5VMXnne6-yURMX6s-4" value="&lt;p class=&quot;MsoNormal&quot;&gt;&lt;font style=&quot;font-size: 14px;&quot;&gt;Пользователь нажимает на иконку выбора стикеров,&lt;br/&gt;расположенную рядом с полем ввода сообщения&lt;/font&gt;&lt;/p&gt;" style="text;html=1;align=center;verticalAlign=middle;whiteSpace=wrap;rounded=0;" parent="1" vertex="1">
          <mxGeometry x="350" y="380" width="330" height="70" as="geometry" />
        </mxCell>
        <mxCell id="cwy-5VMXnne6-yURMX6s-5" value="" style="endArrow=none;html=1;rounded=0;entryX=1;entryY=0;entryDx=0;entryDy=0;" parent="1" edge="1">
          <mxGeometry width="50" height="50" relative="1" as="geometry">
            <mxPoint x="109" y="450" as="sourcePoint" />
            <mxPoint x="679" y="450" as="targetPoint" />
          </mxGeometry>
        </mxCell>
        <mxCell id="cwy-5VMXnne6-yURMX6s-6" value="&lt;h3 style=&quot;font-size: 15px;&quot;&gt;Основной сценарий&lt;/h3&gt;" style="text;html=1;align=center;verticalAlign=middle;whiteSpace=wrap;rounded=0;" parent="1" vertex="1">
          <mxGeometry x="150" y="622" width="160" height="10" as="geometry" />
        </mxCell>
        <mxCell id="cwy-5VMXnne6-yURMX6s-10" value="" style="endArrow=none;html=1;rounded=0;entryX=1;entryY=0;entryDx=0;entryDy=0;" parent="1" edge="1">
          <mxGeometry width="50" height="50" relative="1" as="geometry">
            <mxPoint x="110" y="860" as="sourcePoint" />
            <mxPoint x="680" y="860" as="targetPoint" />
          </mxGeometry>
        </mxCell>
        <mxCell id="cwy-5VMXnne6-yURMX6s-11" value="&lt;h3&gt;&lt;font style=&quot;font-size: 15px;&quot;&gt;Альтернативный сценарий&lt;/font&gt;&lt;/h3&gt;" style="text;html=1;align=center;verticalAlign=middle;whiteSpace=wrap;rounded=0;" parent="1" vertex="1">
          <mxGeometry x="120" y="922.5" width="220" height="30" as="geometry" />
        </mxCell>
        <mxCell id="cwy-5VMXnne6-yURMX6s-15" value="&lt;p&gt;&lt;font face=&quot;Helvetica&quot; style=&quot;font-size: 14px;&quot;&gt;&lt;font style=&quot;font-size: 14px;&quot;&gt;&lt;span style=&quot;text-indent: -18pt; background-color: initial;&quot;&gt;1.&lt;/span&gt;&lt;font style=&quot;text-indent: -18pt; background-color: initial; font-size: 14px;&quot;&gt; &lt;/font&gt;&lt;span style=&quot;text-indent: -18pt; background-color: initial;&quot;&gt;Пользователь нажимает на иконку выбора стикеров, &lt;/span&gt;&lt;span style=&quot;text-indent: -18pt; background-color: initial;&quot;&gt;расположенную рядом с полем ввода сообщения. (Экран 2.0)&lt;/span&gt;&lt;/font&gt;&lt;/font&gt;&lt;/p&gt;&lt;p&gt;&lt;font face=&quot;Helvetica&quot; style=&quot;font-size: 14px;&quot;&gt;&lt;span style=&quot;text-indent: -18pt; background-color: initial;&quot;&gt;2.&lt;/span&gt;&lt;font style=&quot;text-indent: -18pt; background-color: initial; font-size: 14px;&quot;&gt;&amp;nbsp;&lt;/font&gt;&lt;span style=&quot;text-indent: -18pt; line-height: 107%; background: white;&quot;&gt;Система показывает всплывающее окно в нижней части экрана, где можно выбрать стикер. (Экран 3)&lt;/span&gt;&lt;/font&gt;&lt;/p&gt;&lt;p&gt;&lt;font face=&quot;Helvetica&quot; style=&quot;font-size: 14px;&quot;&gt;&lt;span style=&quot;text-indent: -18pt; background-color: initial;&quot;&gt;3.&lt;/span&gt;&lt;font style=&quot;text-indent: -18pt; background-color: initial; font-size: 14px;&quot;&gt;&amp;nbsp;&lt;/font&gt;&lt;span style=&quot;text-indent: -18pt; line-height: 107%; background: white;&quot;&gt;Пользователь выбирает стикер, удерживая его палец на экране.&amp;nbsp;&lt;/span&gt;&lt;/font&gt;&lt;/p&gt;&lt;p&gt;&lt;font face=&quot;Helvetica&quot; style=&quot;font-size: 14px;&quot;&gt;&lt;span style=&quot;text-indent: -18pt; background-color: initial;&quot;&gt;4.&lt;/span&gt;&lt;font style=&quot;text-indent: -18pt; background-color: initial; font-size: 14px;&quot;&gt;&amp;nbsp;&lt;/font&gt;&lt;span style=&quot;text-indent: -18pt; line-height: 107%; background: white;&quot;&gt;Система показывает увеличенное изображение стикера. (Экран 4)&lt;/span&gt;&lt;/font&gt;&lt;/p&gt;&lt;p&gt;&lt;font face=&quot;Helvetica&quot; style=&quot;font-size: 14px;&quot;&gt;&lt;span style=&quot;text-indent: -18pt; background-color: initial;&quot;&gt;5.&lt;/span&gt;&lt;font style=&quot;text-indent: -18pt; background-color: initial; font-size: 14px;&quot;&gt;&amp;nbsp;&lt;/font&gt;&lt;span style=&quot;text-indent: -18pt; line-height: 107%; background: white;&quot;&gt;Пользователь убирает зажатие.&lt;/span&gt;&lt;/font&gt;&lt;/p&gt;&lt;p&gt;&lt;font face=&quot;Helvetica&quot; style=&quot;font-size: 14px;&quot;&gt;&lt;span style=&quot;background-color: initial;&quot;&gt;6.&lt;/span&gt;&lt;font style=&quot;background-color: initial; font-size: 14px;&quot;&gt; &lt;/font&gt;&lt;span style=&quot;background-color: initial;&quot;&gt;Система возвращает к действию (окну) до зажатия &lt;/span&gt;&lt;span style=&quot;background-color: initial;&quot;&gt;стикера. (Экран 3)&lt;/span&gt;&lt;/font&gt;&lt;/p&gt;&lt;p&gt;&lt;font face=&quot;Helvetica&quot; style=&quot;font-size: 14px;&quot;&gt;&lt;span style=&quot;background-color: initial;&quot;&gt;7.&lt;/span&gt;&lt;font style=&quot;background-color: initial; font-size: 14px;&quot;&gt; &lt;/font&gt;&lt;span style=&quot;background-color: initial;&quot;&gt;Пользователь кликает по стикеру.&lt;/span&gt;&lt;/font&gt;&lt;/p&gt;&lt;p&gt;&lt;span style=&quot;font-size: 14px; text-indent: -18pt; background-color: initial;&quot;&gt;8. Система отправляет стикер. (Экран 4)&lt;/span&gt;&lt;/p&gt;" style="text;html=1;align=left;verticalAlign=middle;whiteSpace=wrap;rounded=0;" parent="1" vertex="1">
          <mxGeometry x="354" y="457" width="320" height="340" as="geometry" />
        </mxCell>
        <mxCell id="cwy-5VMXnne6-yURMX6s-16" value="&lt;p style=&quot;font-size: 14px;&quot; class=&quot;MsoNormal&quot;&gt;&lt;font face=&quot;Helvetica&quot;&gt;&lt;strong&gt;Критерий успеха:&lt;/strong&gt;&lt;br&gt;Стикер успешно отображается в чате.&lt;/font&gt;&lt;/p&gt;" style="text;whiteSpace=wrap;html=1;" parent="1" vertex="1">
          <mxGeometry x="354" y="795" width="326" height="80" as="geometry" />
        </mxCell>
        <mxCell id="cwy-5VMXnne6-yURMX6s-17" value="&lt;p style=&quot;font-size: 14px;&quot; class=&quot;MsoNormal&quot;&gt;&lt;font style=&quot;font-size: 14px;&quot;&gt;&lt;span style=&quot;line-height: 107%; color: black; background: white;&quot;&gt;1а. Пользователь вводит слово&lt;br&gt;или смайлик в сообщение. (Экран 2.1)&lt;/span&gt;&lt;span style=&quot;color: black;&quot;&gt;&lt;br style=&quot;font-variant-ligatures: normal;&lt;br/&gt;font-variant-caps: normal;orphans: 2;widows: 2;-webkit-text-stroke-width: 0px;&lt;br/&gt;text-decoration-thickness: initial;text-decoration-style: initial;text-decoration-color: initial;&lt;br/&gt;word-spacing:0px&quot;&gt;&lt;br&gt;&lt;/span&gt;&lt;span style=&quot;font-variant-ligatures: normal;font-variant-caps: normal;&lt;br/&gt;orphans: 2;widows: 2;-webkit-text-stroke-width: 0px;text-decoration-thickness: initial;&lt;br/&gt;text-decoration-style: initial;text-decoration-color: initial;float:none;&lt;br/&gt;word-spacing:0px&quot;&gt;2а&lt;span style=&quot;line-height: 107%; color: black; background: white;&quot;&gt; . Система предлагает стикеры,&lt;br&gt;связанные с этим словом или смайликом &lt;/span&gt;над сообщением&lt;span style=&quot;line-height: 107%; background: white;&quot;&gt;. (Экран 3.1)&lt;/span&gt;&lt;/span&gt;&lt;/font&gt;&lt;/p&gt;&lt;p class=&quot;MsoNormal&quot; style=&quot;margin-bottom: 0.0001pt; font-size: 14px;&quot;&gt;&lt;font style=&quot;font-size: 14px;&quot;&gt;-- Переход к шагу 3 основного сценария.&lt;/font&gt;&lt;/p&gt;" style="text;whiteSpace=wrap;html=1;" parent="1" vertex="1">
          <mxGeometry x="354" y="855" width="326" height="165" as="geometry" />
        </mxCell>
        <mxCell id="cwy-5VMXnne6-yURMX6s-18" value="&lt;font size=&quot;1&quot; style=&quot;&quot;&gt;&lt;b style=&quot;font-size: 15px;&quot;&gt;Исключительный сценарий&lt;/b&gt;&lt;/font&gt;" style="text;html=1;align=center;verticalAlign=middle;whiteSpace=wrap;rounded=0;" parent="1" vertex="1">
          <mxGeometry x="125" y="1050" width="210" height="30" as="geometry" />
        </mxCell>
        <mxCell id="cwy-5VMXnne6-yURMX6s-20" value="&lt;font style=&quot;font-size: 14px;&quot;&gt;До основного и альтернативного сценария: Если пользователь в черном списке, система выводит сообщение об ошибке.Никакие действия совершить нельзя.&lt;/font&gt;" style="text;html=1;align=left;verticalAlign=middle;whiteSpace=wrap;rounded=0;" parent="1" vertex="1">
          <mxGeometry x="354" y="1030" width="316" height="70" as="geometry" />
        </mxCell>
        <mxCell id="cwy-5VMXnne6-yURMX6s-23" value="" style="shape=ext;double=1;rounded=0;whiteSpace=wrap;html=1;" parent="1" vertex="1">
          <mxGeometry x="109" y="-40" width="570" height="110" as="geometry" />
        </mxCell>
        <mxCell id="cwy-5VMXnne6-yURMX6s-21" value="&lt;div&gt;&lt;font face=&quot;-apple-system, BlinkMacSystemFont, Segoe UI, Noto Sans, Helvetica, Arial, sans-serif, Apple Color Emoji, Segoe UI Emoji&quot; color=&quot;#1f2328&quot;&gt;&lt;span style=&quot;font-size: 16px; background-color: rgb(255, 255, 255);&quot;&gt;&lt;b&gt;User Story&lt;/b&gt;&lt;/span&gt;&lt;/font&gt;&lt;/div&gt;&lt;strong style=&quot;box-sizing: border-box; font-weight: var(--base-text-weight-semibold, 600); color: rgb(31, 35, 40); font-family: -apple-system, BlinkMacSystemFont, &amp;quot;Segoe UI&amp;quot;, &amp;quot;Noto Sans&amp;quot;, Helvetica, Arial, sans-serif, &amp;quot;Apple Color Emoji&amp;quot;, &amp;quot;Segoe UI Emoji&amp;quot;; font-size: 16px; font-style: normal; font-variant-ligatures: normal; font-variant-caps: normal; letter-spacing: normal; orphans: 2; text-align: start; text-indent: 0px; text-transform: none; widows: 2; word-spacing: 0px; -webkit-text-stroke-width: 0px; white-space: normal; background-color: rgb(255, 255, 255); text-decoration-thickness: initial; text-decoration-style: initial; text-decoration-color: initial;&quot;&gt;&lt;div&gt;&lt;strong style=&quot;box-sizing: border-box; font-weight: var(--base-text-weight-semibold, 600); color: rgb(31, 35, 40); font-family: -apple-system, BlinkMacSystemFont, &amp;quot;Segoe UI&amp;quot;, &amp;quot;Noto Sans&amp;quot;, Helvetica, Arial, sans-serif, &amp;quot;Apple Color Emoji&amp;quot;, &amp;quot;Segoe UI Emoji&amp;quot;; font-size: 16px; font-style: normal; font-variant-ligatures: normal; font-variant-caps: normal; letter-spacing: normal; orphans: 2; text-align: start; text-indent: 0px; text-transform: none; widows: 2; word-spacing: 0px; -webkit-text-stroke-width: 0px; white-space: normal; background-color: rgb(255, 255, 255); text-decoration-thickness: initial; text-decoration-style: initial; text-decoration-color: initial;&quot;&gt;&lt;br&gt;&lt;/strong&gt;&lt;/div&gt;Я, как&lt;/strong&gt;&lt;span style=&quot;color: rgb(31, 35, 40); font-family: -apple-system, BlinkMacSystemFont, &amp;quot;Segoe UI&amp;quot;, &amp;quot;Noto Sans&amp;quot;, Helvetica, Arial, sans-serif, &amp;quot;Apple Color Emoji&amp;quot;, &amp;quot;Segoe UI Emoji&amp;quot;; font-size: 16px; font-style: normal; font-variant-ligatures: normal; font-variant-caps: normal; font-weight: 400; letter-spacing: normal; orphans: 2; text-align: start; text-indent: 0px; text-transform: none; widows: 2; word-spacing: 0px; -webkit-text-stroke-width: 0px; white-space: normal; background-color: rgb(255, 255, 255); text-decoration-thickness: initial; text-decoration-style: initial; text-decoration-color: initial; display: inline !important; float: none;&quot;&gt;&lt;span&gt;&amp;nbsp;&lt;/span&gt;пользователь мобильного приложения Вконтакте,&lt;span&gt;&amp;nbsp;&lt;/span&gt;&lt;/span&gt;&lt;strong style=&quot;box-sizing: border-box; font-weight: var(--base-text-weight-semibold, 600); color: rgb(31, 35, 40); font-family: -apple-system, BlinkMacSystemFont, &amp;quot;Segoe UI&amp;quot;, &amp;quot;Noto Sans&amp;quot;, Helvetica, Arial, sans-serif, &amp;quot;Apple Color Emoji&amp;quot;, &amp;quot;Segoe UI Emoji&amp;quot;; font-size: 16px; font-style: normal; font-variant-ligatures: normal; font-variant-caps: normal; letter-spacing: normal; orphans: 2; text-align: start; text-indent: 0px; text-transform: none; widows: 2; word-spacing: 0px; -webkit-text-stroke-width: 0px; white-space: normal; background-color: rgb(255, 255, 255); text-decoration-thickness: initial; text-decoration-style: initial; text-decoration-color: initial;&quot;&gt;хочу иметь возможность&lt;/strong&gt;&lt;span style=&quot;color: rgb(31, 35, 40); font-family: -apple-system, BlinkMacSystemFont, &amp;quot;Segoe UI&amp;quot;, &amp;quot;Noto Sans&amp;quot;, Helvetica, Arial, sans-serif, &amp;quot;Apple Color Emoji&amp;quot;, &amp;quot;Segoe UI Emoji&amp;quot;; font-size: 16px; font-style: normal; font-variant-ligatures: normal; font-variant-caps: normal; font-weight: 400; letter-spacing: normal; orphans: 2; text-align: start; text-indent: 0px; text-transform: none; widows: 2; word-spacing: 0px; -webkit-text-stroke-width: 0px; white-space: normal; background-color: rgb(255, 255, 255); text-decoration-thickness: initial; text-decoration-style: initial; text-decoration-color: initial; display: inline !important; float: none;&quot;&gt;&lt;span&gt;&amp;nbsp;&lt;/span&gt;отправлять стикеры,&lt;span&gt;&amp;nbsp;&lt;/span&gt;&lt;/span&gt;&lt;strong style=&quot;box-sizing: border-box; font-weight: var(--base-text-weight-semibold, 600); color: rgb(31, 35, 40); font-family: -apple-system, BlinkMacSystemFont, &amp;quot;Segoe UI&amp;quot;, &amp;quot;Noto Sans&amp;quot;, Helvetica, Arial, sans-serif, &amp;quot;Apple Color Emoji&amp;quot;, &amp;quot;Segoe UI Emoji&amp;quot;; font-size: 16px; font-style: normal; font-variant-ligatures: normal; font-variant-caps: normal; letter-spacing: normal; orphans: 2; text-align: start; text-indent: 0px; text-transform: none; widows: 2; word-spacing: 0px; -webkit-text-stroke-width: 0px; white-space: normal; background-color: rgb(255, 255, 255); text-decoration-thickness: initial; text-decoration-style: initial; text-decoration-color: initial;&quot;&gt;для того чтобы&lt;/strong&gt;&lt;span style=&quot;color: rgb(31, 35, 40); font-family: -apple-system, BlinkMacSystemFont, &amp;quot;Segoe UI&amp;quot;, &amp;quot;Noto Sans&amp;quot;, Helvetica, Arial, sans-serif, &amp;quot;Apple Color Emoji&amp;quot;, &amp;quot;Segoe UI Emoji&amp;quot;; font-size: 16px; font-style: normal; font-variant-ligatures: normal; font-variant-caps: normal; font-weight: 400; letter-spacing: normal; orphans: 2; text-align: start; text-indent: 0px; text-transform: none; widows: 2; word-spacing: 0px; -webkit-text-stroke-width: 0px; white-space: normal; background-color: rgb(255, 255, 255); text-decoration-thickness: initial; text-decoration-style: initial; text-decoration-color: initial; display: inline !important; float: none;&quot;&gt;&lt;span&gt;&amp;nbsp;&lt;/span&gt;быстрее отвечать на сообщения и передавать эмоции.&lt;/span&gt;" style="text;whiteSpace=wrap;html=1;" parent="1" vertex="1">
          <mxGeometry x="119" y="-40" width="550" height="110" as="geometry" />
        </mxCell>
        <mxCell id="cwy-5VMXnne6-yURMX6s-24" value="&lt;font size=&quot;1&quot; style=&quot;&quot;&gt;&lt;b style=&quot;font-size: 17px;&quot;&gt;Use Case&lt;/b&gt;&lt;/font&gt;" style="text;html=1;align=center;verticalAlign=middle;whiteSpace=wrap;rounded=0;aspect=fixed;" parent="1" vertex="1">
          <mxGeometry x="326" y="80" width="136" height="30" as="geometry" />
        </mxCell>
      </root>
    </mxGraphModel>
  </diagram>
</mxfile>
